<?xml version="1.0" encoding="utf-8"?>
<!-- Generator: Adobe Illustrator 27.7.0, SVG Export Plug-In . SVG Version: 6.00 Build 0)  -->
<svg version="1.1" id="Layer_1" xmlns="http://www.w3.org/2000/svg" xmlns:xlink="http://www.w3.org/1999/xlink" x="0px" y="0px"
	 viewBox="0 0 545.58 186.3" style="enable-background:new 0 0 545.58 186.3;" xml:space="preserve">
<style type="text/css">
	.st0{fill:#FFFFFF;}
	.st1{fill:#B52758;}
	.st2{fill:#B6295B;}
	.st3{fill:#C6C4C3;}
	.st4{fill:#B52658;}
	.st5{fill:#1700D4;}
	.st6{fill:#C6C3C3;}
	.st7{fill:#EEEDED;}
	.st8{fill:url(#SVGID_1_);}
	.st9{fill:url(#SVGID_00000091713405789927264330000011739140771103520185_);}
</style>
<path class="st0" d="M92.68,147.05c4.81-3.87,9.86-6.69,15.2-8.29l27.24-20.08c1.2-3.35,1.45-7.07,1.09-11.04l-25.83-7.3l-2.42-3.43
	l18.23-22.63l26.72,8.75l9.86,0.03l8.34-10.98L144.84,55.5l-8.27-6.02L93.27,99.72l5.26,5.95c3.31,2.7,5.56,2.08,7.44,1.13
	l-0.31,7.58l4.7,4.59l-23.3,12.86l-4.79,11.27L92.68,147.05z"/>
<path class="st1" d="M433.64,120.69c0-13.12,0-26.25,0-39.68c3.52,0,6.6,0,10.05,0c0,22.98,0,46.02,0,69.7
	c-2.5,0-5.11-0.11-7.7,0.03c-2.55,0.14-3.62-0.71-4.38-3.39c-3.44-12.06-7.25-24-10.95-35.98c-0.28-0.91-0.7-1.78-1.68-2.6
	c0,13.79,0,27.58,0,41.65c-3.49,0-6.57,0-10,0c0-23.04,0-46.08,0-69.42c3.7,0,7.42,0,10.98,0c3.97,13.42,7.86,26.6,11.75,39.77
	c0.51,1.61,1.03,3.23,1.93,6.05C433.64,123.9,433.64,122.3,433.64,120.69z"/>
<path class="st2" d="M325.17,131.94c3.98,0,6.93,0,10.1,0c0.76,1.93,1.57,4.01,2.41,6.09c1.35,3.33,3.95,4.28,7.2,3.43
	c3.21-0.84,5.52-2.97,4.96-6.41c-0.46-2.82-1.4-5.95-3.16-8.1c-4.1-5.01-8.95-9.39-13.24-14.26c-5.68-6.44-8.62-13.81-5.48-22.36
	c2.95-8.03,9.96-11.85,18.19-10.46c7.33,1.24,12.2,6.96,12.83,15.09c0.08,0.99,0.01,1.98,0.01,3.67c-3.08,0.45-6.21,0.92-9.72,1.43
	c-0.23-2.08-0.26-3.7-0.61-5.25c-0.85-3.88-4.01-5.84-7.35-4.69c-3.36,1.16-5.71,5.37-4.03,8.37c2.08,3.72,4.72,7.18,7.45,10.48
	c3.5,4.23,7.57,7.99,10.96,12.29c5.44,6.9,5.88,14.9,2.19,22.43c-3.34,6.81-10.18,8.85-17.37,7.91c-5.66-0.74-10.19-3.99-12.48-9.41
	C326.74,139.14,326.2,135.76,325.17,131.94z"/>
<path class="st2" d="M452.05,131.89c4.24,0,7.19,0,10.3,0c0.64,1.77,1.23,3.61,1.94,5.39c1.41,3.51,3.91,5.28,7.74,4.16
	c3.71-1.08,5.6-3.77,4.77-7.54c-0.54-2.5-1.57-5.19-3.19-7.1c-4.2-4.94-9.01-9.35-13.27-14.23c-5.64-6.46-8.56-13.84-5.35-22.38
	c2.95-7.84,9.62-11.53,17.81-10.35c7.55,1.09,12.59,6.92,13.19,15.29c0.07,0.98,0.01,1.98,0.01,3.55c-3.18,0.44-6.32,0.88-9.94,1.39
	c-0.11-1.86,0.21-3.35-0.35-4.36c-1.12-2.04-2.38-4.69-4.23-5.41c-1.51-0.59-4.73,0.69-5.82,2.15c-1.18,1.58-1.68,4.79-0.85,6.51
	c1.77,3.66,4.41,6.97,7.03,10.14c3.5,4.23,7.57,7.99,10.94,12.31c5.41,6.93,5.8,14.92,2.03,22.44c-3.3,6.56-9.9,8.62-16.96,7.8
	c-5.71-0.66-10.27-3.81-12.7-9.11C453.76,139.47,453.22,136.03,452.05,131.89z"/>
<path class="st3" d="M300.77,90.54c6.7,0,12.74,0,18.67,0c0-3.62,0-6.52,0-9.5c-9.96,0-19.52,0-29.2,0c0,23.33,0,46.32,0,69.32
	c9.99,0,19.55,0,29.28,0c0-3.26,0-6.17,0-9.77c-6.33,0-12.38,0-18.8,0l0.08-19.94c0,0,11.14-0.05,14.71-0.05c0-4,0-7.09,0-10.78
	c-3.92,0-14.51,0.02-14.51,0.02L300.77,90.54z"/>
<path class="st4" d="M496.88,150.35c0-23.3,0-46.24,0-69.41c9.65,0,19.06,0,28.72,0c0,3.11,0,6.05,0,9.5c-5.93,0-12,0-18.72,0
	c0,6.23,0.09,20.17,0.09,20.17s10.72,0.1,14.61,0.1c0,3.43,0,6.49,0,9.87c-4.78,0-9.4,0-14.37,0c0,6.7,0,13.09,0,19.99
	c5.95,0,12.02,0,18.36,0c0,3.55,0,6.61,0,9.78C515.89,150.35,506.35,150.35,496.88,150.35z"/>
<path class="st4" d="M398.62,140.69c0,3.43,0,6.38,0,9.68c-9.49,0-19.02,0-28.77,0c0-23.1,0-46.04,0-69.32c9.42,0,18.84,0,28.63,0
	c0,2.89,0,5.95,0,9.51c-5.94,0-12.01,0-18.62,0c0,6.09-0.19,19.99-0.19,19.99s10.91,0.16,14.79,0.16c0,3.19,0,6.25,0,9.82
	c-4.54,0-9.28,0-14.31,0c0,6.88,0,13.27,0,20.16C386.28,140.69,392.35,140.69,398.62,140.69z"/>
<path class="st5" d="M96.8,103.73c0.01,0.01,0.01,0.01,0.01,0.02l-0.04-0.02H96.8z"/>
<path class="st5" d="M110.64,87.69l-0.01,0.01c-0.15-0.37-0.33-0.75-0.52-1.13C110.3,86.95,110.49,87.32,110.64,87.69z"/>
<path class="st5" d="M110.64,87.69l-0.01,0.01c-0.15-0.37-0.33-0.75-0.52-1.13C110.3,86.95,110.49,87.32,110.64,87.69z"/>
<path class="st6" d="M155.84,84.48c-0.98-0.19-1.96-1.16-2.94-1.35c-5.04-1.1-10.08-2.2-15.11-3.3v10.9h12.16v59.57h10.92V91.03
	c3.93-0.24,7.31-0.45,10.71-0.66v-8.94c-2.94,0.58-5.88,1.15-8.82,1.73c-0.98,0.18-2.94,1.26-2.94,1.26S157.03,85.17,155.84,84.48z"
	/>
<path class="st3" d="M224.17,80.98c3.22,0,6.12,0,9.41,0c0,23.1,0,45.96,0,69.28c-2.98,0-6.01,0-9.41,0
	C224.17,127.35,224.17,104.49,224.17,80.98z"/>
<path class="st5" d="M132.82,109.67L132.82,109.67c-0.01,0.01-0.03,0.02-0.04,0.03L132.82,109.67z"/>
<path class="st7" d="M433.64,120.69c0,1.6,0,3.2,0,6.14c-0.9-2.82-1.41-4.44-1.93-6.05C432.35,120.75,433,120.72,433.64,120.69z"/>
<path class="st5" d="M78.71,135.78c0.14,0.57,0.28,1.14,0.42,1.71C78.99,136.92,78.85,136.35,78.71,135.78z"/>
<path class="st3" d="M207.63,124.73c-0.97-3.16-0.71-5.31,1.45-8.12c2.07-2.67,3.07-6.46,3.65-9.91c0.6-3.56,0.11-7.3,0.11-10.97
	c0-8.26-5.38-14.43-13.58-14.92c-6.13-0.36-12.29-0.07-18.87-0.07c0,23.65,0,46.65,0,69.52c3.7,0,6.92,0,10.66,0
	c0-9.7,0-18.95,0-27.99c3.97-1.37,5.6-0.2,6.4,3.44c1.56,7.12,6.95,24.81,6.95,24.81s7.22,0.17,10.63,0.17
	C212.45,141.56,210.2,133.09,207.63,124.73z M201.81,107.5c-1.14,4.91-6.49,3.85-10.7,4.09c0-7.12,0-13.69,0-21.87
	c4.16-1.61,9.46,0.51,9.92,3.55C202.47,98.04,202.94,102.62,201.81,107.5z"/>
<path class="st3" d="M278.84,95.91c-0.05-7.23-3.42-12.6-10.41-13.97c-7.18-1.41-14.69-1.14-22.34-1.62c0,23.9,0,46.68,0,70.4
	c6,0,11.62,0.06,17.23-0.01c9.24-0.13,15.42-6.12,15.51-15.3C278.97,122.24,278.94,109.07,278.84,95.91z M268.76,130.43
	c-0.01,8.86-2.27,10.88-11.55,9.92c0-16.27,0-32.59,0-49.24c9.18-1.01,11.5,1.03,11.54,9.91
	C268.8,110.81,268.78,120.62,268.76,130.43z"/>
<linearGradient id="SVGID_1_" gradientUnits="userSpaceOnUse" x1="11.0774" y1="82.1391" x2="211.4052" y2="82.1391">
	<stop  offset="0" style="stop-color:#CB224D"/>
	<stop  offset="1" style="stop-color:#583A81"/>
</linearGradient>
<path class="st8" d="M128.98,115.83c-9.62,8.39-19.44,16.54-29.21,24.76c-0.2,0.17-0.64,0.07-0.98,0.1
	c-0.89-0.65-1.84-1.87-2.66-1.79c-7.62,0.75-7.62,0.82-9.05-6.97c5.2-3.16,10.61-6.04,15.48-9.65c1.48-1.11,2.71-5.23,1.89-6.27
	c-3.17-4.02-0.24-6.33,1.53-9.11c1.61,0.02,3.29-0.27,4.81,0.11c5.64,1.4,11.2,3.11,16.83,4.54
	C130.62,112.32,130.75,114.3,128.98,115.83z M110.18,30.68c-6.15-4.35-13.1-4.21-20.14-3.61C71.55,29.53,61.19,43.19,50.2,56.3
	c1.57,0.22,3.06,0.14,4.28-0.47c4.43-2.22,8.58-5.09,13.18-6.83c4.32-1.62,9.03-2.42,13.64-3.01c2.84-0.37,5.82,0.32,8.74,0.54
	c1.62,0.25,3.31,0.31,4.85,0.8c7.07,2.25,8.08,5.09,4.4,11.45c-3.19,5.5-6.25,11.09-9.37,16.64c-6.36,8.23-12.96,16.25-20.02,23.91
	c-6.98,6.75-13.96,13.49-20.94,20.24c-11.79,8.39-22.98,17.66-34.51,26.44c-1.29,1.01-2.25,2.45-3.37,3.7
	c1.66,0.7,3.37,2.09,4.97,1.98c12.2-0.82,23.41-4.95,34-10.9c7-4.12,14-8.24,20.99-12.36c8.81-6.63,17.62-13.28,26.41-19.9
	c0.22-1.15,0.86-1.61,1.09-2.76c-0.35-0.59-1.2-1.42-1.55-2h0.03c-1-1.5-3.12-3.65-2.71-4.34c0.92-1.6,3.74-3.84,4.63-3.41
	c5.2,2.5,6.6-1.74,8.92-4.37c1.09-1.22,2-2.6,3-3.91v-0.01l-0.01,0.01c-0.15-0.37-0.33-0.75-0.52-1.13
	c0.19,0.38,0.38,0.75,0.53,1.12c7.08-8.51,14.49-16.77,21.07-25.68c2.54-3.42,3.15-8.27,4.64-12.47
	C128.76,41.89,120.23,35.23,110.18,30.68z M143.83,10.86c-21.46,4.51-20.95,32.67,0,36.55C170.99,50.48,170.26,8.09,143.83,10.86z
	 M171.84,61.91c-9.76,1.12-18.46-2.27-27-6.31c-0.05,1.82-0.8,4.06-0.01,5.39c2.69,4.51,5.87,8.73,9,12.96
	c0.6,0.81,1.81,1.6,2.77,1.65c4.95,0.26,6.53,3.07,6.16,7.56c2.94-0.58,5.88-1.15,8.82-1.73c0.11-0.22,0.19-0.45,0.26-0.69
	c15.4-2.7,40.07-19.3,39.56-27.49C198.5,57.95,185.66,62.45,171.84,61.91z M149.03,71.84c-2.02-2.16-3.67-4.73-5.17-7.31
	c-3.98-6.8-4.87-6.89-10.02-0.68c-1.7,2.05-3.7,3.86-5.32,5.97c-1.02,1.34-1.58,3.03-2.34,4.56c3.87,1.82,7.74,3.63,11.61,5.45
	c5.03,1.1,10.07,2.2,15.11,3.3C153.46,78.73,152.08,75.1,149.03,71.84z M119.81,92.55c-3.47,3.67-6.29,4.57-9.43,7.89
	c0.41,0.67,1.21,2.25,0.65,3.77c6.87,1.75,14.91,3.81,21.8,5.46c1.13-0.64,2.26-1.29,3.39-1.93
	C133.29,99.79,126.06,96.7,119.81,92.55z M129.95,118.31c-7.31,6.64-14.89,12.99-22.33,19.49c-0.13,0.11,0.16,0.7,0.26,1.06
	c10.95-4.16,20.89-9.68,27.24-20.08C133.55,116.94,132.24,116.23,129.95,118.31z M91.42,142.16c-1.84-0.4-3.35-1.14-4.73-0.94
	c-1.6,0.23-4.4,1.27-4.4,1.98c-0.03,3.45,0.7,6.9,1.16,10.35c0.89-0.29,1.94-0.36,2.64-0.9c2.23-1.71,4.33-3.6,6.59-5.5
	C92.28,145.56,91.88,143.98,91.42,142.16z"/>
<linearGradient id="SVGID_00000128464755765262532050000005143125901215488163_" gradientUnits="userSpaceOnUse" x1="11.0774" y1="82.0405" x2="211.4052" y2="82.0405">
	<stop  offset="0" style="stop-color:#CB224D"/>
	<stop  offset="1" style="stop-color:#583A81"/>
</linearGradient>
<path style="fill:url(#SVGID_00000128464755765262532050000005143125901215488163_);" d="M128.98,115.73
	c-9.62,8.39-19.44,16.54-29.21,24.76c-0.2,0.17-0.64,0.07-0.98,0.1c-0.89-0.65-1.84-1.87-2.66-1.79c-7.62,0.75-7.62,0.82-9.05-6.97
	c5.2-3.16,10.61-6.04,15.48-9.65c1.48-1.11,2.71-5.23,1.89-6.27c-3.17-4.02-0.24-6.33,1.53-9.11c1.61,0.02,3.29-0.27,4.81,0.11
	c5.64,1.4,11.2,3.11,16.83,4.54C130.62,112.22,130.75,114.2,128.98,115.73z M110.18,30.58c-6.15-4.35-13.1-4.21-20.14-3.61
	C71.55,29.43,61.19,43.09,50.2,56.2c1.57,0.22,3.06,0.14,4.28-0.47c4.43-2.22,8.58-5.09,13.18-6.83c4.32-1.62,9.03-2.42,13.64-3.01
	c2.84-0.37,5.82,0.32,8.74,0.54c1.62,0.25,3.31,0.31,4.85,0.8c7.07,2.25,8.08,5.09,4.4,11.45c-3.19,5.5-6.25,11.09-9.37,16.64
	c-6.36,8.23-12.96,16.25-20.02,23.91c-6.98,6.75-13.96,13.49-20.94,20.24c-11.79,8.39-22.98,17.66-34.51,26.44
	c-1.29,1.01-2.25,2.45-3.37,3.7c1.66,0.7,3.37,2.09,4.97,1.98c12.2-0.82,23.41-4.95,34-10.9c7-4.12,14-8.24,20.99-12.36
	c8.81-6.63,17.62-13.28,26.41-19.9c0.22-1.15,0.86-1.61,1.09-2.76c-0.35-0.59-1.2-1.42-1.55-2h0.03c-1-1.5-3.12-3.65-2.71-4.34
	c0.92-1.6,3.74-3.84,4.63-3.41c5.2,2.5,6.6-1.74,8.92-4.37c1.09-1.22,2-2.6,3-3.91v-0.01l-0.01,0.01c-0.15-0.37-0.33-0.75-0.52-1.13
	c0.19,0.38,0.38,0.75,0.53,1.12c7.08-8.51,14.49-16.77,21.07-25.68c2.54-3.42,3.15-8.27,4.64-12.47
	C128.76,41.79,120.23,35.13,110.18,30.58z M143.83,10.76c-21.46,4.51-20.95,32.67,0,36.55C170.99,50.38,170.26,7.99,143.83,10.76z
	 M171.84,61.81c-9.76,1.12-18.46-2.27-27-6.31c-0.05,1.82-0.8,4.06-0.01,5.39c2.69,4.51,5.87,8.73,9,12.96
	c0.6,0.81,1.81,1.6,2.77,1.65c4.95,0.26,6.53,3.07,6.16,7.56c2.94-0.58,5.88-1.15,8.82-1.73c0.11-0.22,0.19-0.45,0.26-0.69
	c15.4-2.7,40.07-19.3,39.56-27.49C198.5,57.85,185.66,62.35,171.84,61.81z M149.03,71.74c-2.02-2.16-3.67-4.73-5.17-7.31
	c-3.98-6.8-4.87-6.89-10.02-0.68c-1.7,2.05-3.7,3.86-5.32,5.97c-1.02,1.34-1.58,3.03-2.34,4.56c3.87,1.82,7.74,3.63,11.61,5.45
	c5.03,1.1,10.07,2.2,15.11,3.3C153.46,78.63,152.08,75,149.03,71.74z M119.81,92.45c-3.47,3.67-6.29,4.57-9.43,7.89
	c0.41,0.67,1.21,2.25,0.65,3.77c6.87,1.75,14.91,3.81,21.8,5.46c1.13-0.64,2.26-1.29,3.39-1.93
	C133.29,99.69,126.06,96.6,119.81,92.45z M129.95,118.21c-7.31,6.64-14.89,12.99-22.33,19.49c-0.13,0.11,0.16,0.7,0.26,1.06
	c10.95-4.16,20.89-9.68,27.24-20.08C133.55,116.84,132.24,116.13,129.95,118.21z M91.42,142.06c-1.84-0.4-3.35-1.14-4.73-0.94
	c-1.6,0.23-4.4,1.27-4.4,1.98c-0.03,3.45,0.7,6.9,1.16,10.35c0.89-0.29,1.94-0.36,2.64-0.9c2.23-1.71,4.33-3.6,6.59-5.5
	C92.28,145.46,91.88,143.88,91.42,142.06z"/>
<path class="st5" d="M96.77,103.73h0.03c0.01,0.01,0.01,0.01,0.01,0.02L96.77,103.73z"/>
</svg>
